<?xml version="1.0" standalone="no"?><!DOCTYPE svg PUBLIC "-//W3C//DTD SVG 1.1//EN" "http://www.w3.org/Graphics/SVG/1.1/DTD/svg11.dtd"><svg class="icon" width="32px" height="32.00px" viewBox="0 0 1024 1024" version="1.1" xmlns="http://www.w3.org/2000/svg"><path fill="#DCC294" d="M682.484603 0.273483c-188.116667-0.343653-340.891065 151.872983-341.241915 339.984253a340.648169 340.648169 0 0 0 65.601716 201.585701l-48.543218 48.543219-4.998261-4.998261a17.060296 17.060296 0 0 0-24.127671 0L4.997235 909.566415a17.060296 17.060296 0 0 0 0 24.127671l85.308679 85.308679a17.060296 17.060296 0 0 0 24.127671 0l324.17802-324.185216a17.0531 17.0531 0 0 0 0-24.118675L433.615144 665.693417l48.543218-48.536022c152.344381 110.756985 365.630474 77.043018 476.389258-75.301363 110.751587-152.344381 77.043018-365.630474-75.301363-476.387459A341.067389 341.067389 0 0 0 682.484603 0.273483zM102.373348 982.814857l-61.186406-61.181008 300.057546-300.057546 61.179209 61.182808z m307.114125-341.241914l-27.060416-27.058616 46.071077-45.986514c8.510357 9.517925 17.54249 18.548259 27.060416 27.065814z m272.99713 7.063776c-169.618786 0-307.119522-137.500736-307.119522-307.121322S512.865817 34.395875 682.484603 34.395875c169.620585 0 307.121321 137.507933 307.121321 307.119522-0.197915 169.536022-137.587099 306.923406-307.121321 307.121322z m0 0M682.484603 85.582162c-141.343891 0-255.933235 114.589344-255.933235 255.933235S541.140712 597.452231 682.484603 597.452231c141.34569 0 255.933235-114.589344 255.933235-255.935034-0.161931-141.280918-114.650518-255.771304-255.933235-255.933235z m0 477.745877c-122.502357 0-221.809044-99.310285-221.809044-221.810842S559.980447 119.709952 682.484603 119.709952s221.805445 99.303088 221.805445 221.805445c-0.14034 122.444781-99.366061 221.670503-221.805445 221.809044z m0 0M779.860716 268.268754l-170.617359 170.617359-24.127671-24.127671 170.617359-170.619158z m0 0M694.552037 251.210257L592.181262 353.584631l-24.127671-24.127671 102.365377-102.376173z m0 0M796.933607 353.584631l-102.374373 102.372574-24.127671-24.127671 102.367176-102.374374z m0 0" /></svg>