<svg width="60" height="59" viewBox="0 0 60 59" fill="none" xmlns="http://www.w3.org/2000/svg">
<mask id="mask0_109_87" style="mask-type:alpha" maskUnits="userSpaceOnUse" x="28" y="28" width="33" height="31">
<rect x="28.2363" y="28.2656" width="31.7647" height="30" fill="#9D8E5B"/>
</mask>
<g mask="url(#mask0_109_87)">
<path fill-rule="evenodd" clip-rule="evenodd" d="M32.6463 0.03125H41.471V7.22984L32.6463 7.26862V0.03125ZM24.7051 7.30352V0.03125H15.8824V7.3423L24.7051 7.30352ZM15.8824 15.2835L24.7051 15.2448V24.0687L15.8824 24.1075V15.2835ZM15.8824 32.0488L24.7051 32.01V40.8329L15.8824 40.8717V32.0488ZM7.9412 40.9066V32.0837L0 32.1186V40.9415L7.9412 40.9066ZM0 48.8828L7.9412 48.8479V56.5018H0V48.8828ZM15.8824 48.813L24.7051 48.7742V56.5018H15.8824V48.813ZM32.6463 48.7393V56.5018H41.471V48.7005L32.6463 48.7393ZM49.4122 48.6656V56.5018H56.4706V48.6346L49.4122 48.6656ZM56.4706 40.6933L49.4122 40.7243V31.9014L56.4706 31.8704V40.6933ZM41.471 40.7592L32.6463 40.798V31.9751L41.471 31.9363V40.7592ZM7.9412 15.3184V24.1424L0 24.1773V15.3533L7.9412 15.3184ZM32.6463 24.0338L41.471 23.995V15.1711L32.6463 15.2099V24.0338ZM49.4122 23.9601L56.4706 23.9291V15.1052L49.4122 15.1362V23.9601ZM7.9412 7.3772V0.03125H0V7.4121L7.9412 7.3772ZM56.4706 7.16392V0.03125H49.4122V7.19494L56.4706 7.16392Z" fill="#9D8E5B"/>
</g>
<path fill-rule="evenodd" clip-rule="evenodd" d="M41.471 0.0292969H32.6463V7.26667L41.471 7.22788V0.0292969ZM24.7051 0.0292969V7.30157L15.8824 7.34034V0.0292969H24.7051ZM24.7051 15.2428L15.8824 15.2816V24.1055L24.7051 24.0668V15.2428ZM24.7051 32.008L15.8824 32.0468V40.8697L24.7051 40.831V32.008ZM7.9412 32.0817V40.9046L0 40.9395V32.1166L7.9412 32.0817ZM7.9412 48.8459L0 48.8808V56.4999H7.9412V48.8459ZM24.7051 48.7722L15.8824 48.811V56.4999H24.7051V48.7722ZM7.9412 24.1404V15.3165L0 15.3514V24.1753L7.9412 24.1404ZM41.471 23.9931L32.6463 24.0319V15.2079L41.471 15.1691V23.9931ZM56.4706 23.9272L49.4122 23.9582V15.1342L56.4706 15.1032V23.9272ZM7.9412 0.0292969V7.37524L0 7.41014V0.0292969H7.9412ZM56.4706 0.0292969V7.16196L49.4122 7.19298V0.0292969H56.4706Z" fill="#9D8E5B"/>
</svg>
