<svg width="42" height="42" viewBox="0 0 42 42" fill="none" xmlns="http://www.w3.org/2000/svg">
<circle cx="21" cy="21" r="20.75" stroke="#9D8E5B" stroke-width="0.5"/>
<path d="M21.0438 21.6852C22.5026 21.6852 23.6852 20.5026 23.6852 19.0438C23.6852 17.585 22.5026 16.4023 21.0438 16.4023C19.585 16.4023 18.4023 17.585 18.4023 19.0438C18.4023 20.5026 19.585 21.6852 21.0438 21.6852Z" stroke="#9D8E5B" stroke-linecap="round" stroke-linejoin="round"/>
<path d="M21.0439 12C19.1757 12 17.3841 12.7421 16.0631 14.0631C14.7421 15.3841 14 17.1757 14 19.0439C14 20.7097 14.354 21.7998 15.3207 23.006L21.0439 29.6096L26.767 23.006C27.7338 21.7998 28.0877 20.7097 28.0877 19.0439C28.0877 17.1757 27.3456 15.3841 26.0246 14.0631C24.7036 12.7421 22.912 12 21.0439 12Z" stroke="#9D8E5B" stroke-linecap="round" stroke-linejoin="round"/>
</svg>
