<svg width="42" height="42" viewBox="0 0 42 42" fill="none" xmlns="http://www.w3.org/2000/svg">
<circle cx="21" cy="21" r="20.75" stroke="#9D8E5B" stroke-width="0.5"/>
<path d="M22.2702 17.1468C23.0854 17.1468 23.8672 17.4706 24.4436 18.047C25.02 18.6235 25.3439 19.4053 25.3439 20.2205C25.3439 20.4922 25.4518 20.7528 25.6439 20.9449C25.8361 21.1371 26.0967 21.245 26.3684 21.245C26.6401 21.245 26.9007 21.1371 27.0929 20.9449C27.285 20.7528 27.393 20.4922 27.393 20.2205C27.393 18.8618 26.8533 17.5588 25.8925 16.5981C24.9318 15.6374 23.6288 15.0977 22.2702 15.0977C21.9984 15.0977 21.7378 15.2056 21.5457 15.3977C21.3536 15.5899 21.2456 15.8505 21.2456 16.1222C21.2456 16.3939 21.3536 16.6545 21.5457 16.8467C21.7378 17.0388 21.9984 17.1468 22.2702 17.1468Z" fill="#9D8E5B"/>
<path d="M22.2702 13.0491C24.1723 13.0491 25.9965 13.8047 27.3415 15.1497C28.6865 16.4947 29.4421 18.3189 29.4421 20.2211C29.4421 20.4928 29.5501 20.7534 29.7422 20.9455C29.9343 21.1377 30.1949 21.2456 30.4667 21.2456C30.7384 21.2456 30.999 21.1377 31.1911 20.9455C31.3833 20.7534 31.4912 20.4928 31.4912 20.2211C31.4912 17.7755 30.5197 15.4301 28.7904 13.7008C27.0612 11.9715 24.7158 11 22.2702 11C21.9984 11 21.7378 11.1079 21.5457 11.3001C21.3536 11.4922 21.2456 11.7528 21.2456 12.0246C21.2456 12.2963 21.3536 12.5569 21.5457 12.749C21.7378 12.9412 21.9984 13.0491 22.2702 13.0491ZM31.2351 25.2516C31.1787 25.0872 31.0815 24.9397 30.9524 24.8232C30.8233 24.7067 30.6668 24.625 30.4974 24.5857L24.35 23.182C24.1832 23.1442 24.0095 23.1488 23.8448 23.1953C23.6802 23.2418 23.5298 23.3288 23.4074 23.4484C23.264 23.5816 23.2538 23.5919 22.5878 24.8623C20.378 23.8441 18.6074 22.0661 17.5982 19.8522C18.8994 19.1965 18.9096 19.1965 19.0428 19.0428C19.1624 18.9204 19.2494 18.7701 19.2959 18.6054C19.3425 18.4408 19.347 18.2671 19.3092 18.1002L17.9055 12.0246C17.8662 11.8552 17.7845 11.6986 17.668 11.5696C17.5515 11.4405 17.4041 11.3432 17.2396 11.2869C17.0003 11.2014 16.7532 11.1396 16.5019 11.1025C16.2429 11.0424 15.9787 11.0081 15.713 11C14.463 11 13.2643 11.4965 12.3804 12.3804C11.4965 13.2643 11 14.463 11 15.713C11.0054 19.896 12.6695 23.9061 15.6273 26.8639C18.5852 29.8217 22.5953 31.4858 26.7782 31.4912C27.3972 31.4912 28.01 31.3693 28.5818 31.1325C29.1536 30.8956 29.6732 30.5485 30.1108 30.1108C30.5485 29.6732 30.8956 29.1536 31.1325 28.5818C31.3693 28.01 31.4912 27.3972 31.4912 26.7782C31.4915 26.5175 31.471 26.2571 31.4298 25.9996C31.3867 25.7451 31.3216 25.4948 31.2351 25.2516ZM26.7782 29.4421C23.1379 29.4394 19.6474 27.9921 17.0733 25.4179C14.4992 22.8438 13.0518 19.3533 13.0491 15.713C13.0518 15.0073 13.3333 14.3313 13.8323 13.8323C14.3313 13.3333 15.0073 13.0518 15.713 13.0491H16.0511L17.1474 17.8031L16.5941 18.09C15.713 18.551 15.0163 18.9199 15.3851 19.719C15.9857 21.4194 16.9576 22.9646 18.2301 24.2423C19.5025 25.5201 21.0437 26.4984 22.7415 27.1061C23.6021 27.4545 23.9402 26.809 24.4013 25.9176L24.6984 25.3541L29.4421 26.4401V26.7782C29.4394 27.4839 29.1579 28.1599 28.6589 28.6589C28.1599 29.1579 27.4839 29.4394 26.7782 29.4421Z" fill="#9D8E5B"/>
</svg>
