<svg width="42" height="42" viewBox="0 0 42 42" fill="none" xmlns="http://www.w3.org/2000/svg">
<path d="M29.4493 27.0736C30.7521 25.9125 31.4899 24.3647 31.4899 22.7586C31.4899 21.0517 30.6908 19.4553 29.2398 18.2633C27.8276 17.1036 25.9584 16.4648 23.9763 16.4648C21.9941 16.4648 20.1249 17.1036 18.7129 18.2634C17.262 19.4553 16.4629 21.0517 16.4629 22.7586C16.4629 24.4655 17.262 26.0619 18.7129 27.2539C20.1249 28.4137 21.9941 29.0524 23.9763 29.0524C24.2404 29.0524 24.5061 29.0407 24.7696 29.0176L25.2199 29.4078C26.7708 30.7518 28.7543 31.4917 30.8066 31.4917H31.4896V30.0378L31.2896 29.8378C30.5004 29.0464 29.8751 28.107 29.4493 27.0736ZM26.1145 28.3754L25.2112 27.5924L24.91 27.6293C24.6002 27.6672 24.2884 27.6862 23.9763 27.6862C20.5867 27.6862 17.829 25.4757 17.829 22.7586C17.829 20.0415 20.5867 17.8309 23.9763 17.8309C27.3658 17.8309 30.1236 20.0415 30.1236 22.7586C30.1236 24.1123 29.4482 25.3761 28.2219 26.3172L27.8285 26.619L28.01 27.1328C28.382 28.1821 28.9288 29.1609 29.6272 30.0279C28.3266 29.8108 27.1111 29.239 26.1145 28.3754Z" fill="#9D8E5B"/>
<path d="M12.8862 23.87C13.5256 23.0607 14.0276 22.1517 14.3722 21.1796L14.5523 20.6684L14.1593 20.3667C13.0029 19.4794 12.3661 18.2884 12.3661 17.0132C12.3661 14.4508 14.9705 12.3661 18.1719 12.3661C20.527 12.3661 22.5589 13.4944 23.4687 15.1111C23.6376 15.1029 23.8072 15.0982 23.9776 15.0982C24.3199 15.0982 24.6591 15.1149 24.9951 15.1481C24.6436 14.2373 24.033 13.4058 23.1936 12.7164C21.8462 11.6096 20.063 11 18.1719 11C16.2807 11 14.4975 11.6096 13.15 12.7164C11.7635 13.8553 11 15.3813 11 17.0132C11 18.5415 11.6981 20.0141 12.9317 21.1218C12.5291 22.0907 11.9409 22.9714 11.2001 23.7143L11 23.9144V25.3439H11.683C12.9461 25.3437 14.1918 25.0496 15.3215 24.4847C15.1976 24.0152 15.125 23.5336 15.105 23.0484C14.4193 23.4503 13.6683 23.7284 12.8862 23.87Z" fill="#9D8E5B"/>
<circle cx="21" cy="21" r="20.75" stroke="#9D8E5B" stroke-width="0.5"/>
</svg>
