<?xml version="1.0" standalone="no"?><!DOCTYPE svg PUBLIC "-//W3C//DTD SVG 1.1//EN" "http://www.w3.org/Graphics/SVG/1.1/DTD/svg11.dtd"><svg class="icon" width="32px" height="32.00px" viewBox="0 0 1024 1024" version="1.1" xmlns="http://www.w3.org/2000/svg"><path fill="#DCC294" d="M510.933333 64.042667a32 32 0 0 0-26.346666 16.448l-73.877334 133.226666-54.037333-54.826666a32 32 0 0 0-51.925333 9.237333l-86.464 190.784c-18.261333-3.477333-33.152-8.789333-43.989334-14.208-17.514667-8.746667-23.68-15.338667-23.68-15.338667a32 32 0 0 0-22.954666-9.706666 32 32 0 0 0-22.293334 54.976s15.189333 14.741333 40.341334 27.306666c19.498667 9.770667 46.250667 19.157333 79.616 22.933334a32 32 0 0 0 18.837333 1.408c3.904 0.170667 7.786667 0.384 11.84 0.384 48 0 85.141333-12.138667 110.293333-24.704 11.050667-5.525333 10.944-7.082667 17.706667-12.010667 6.762667 4.928 6.656 6.485333 17.706667 12.010667C426.88 414.549333 464 426.666667 512 426.666667s85.141333-12.138667 110.293333-24.704c11.050667-5.525333 10.944-7.082667 17.706667-12.010667 6.762667 4.928 6.656 6.485333 17.706667 12.010667C682.88 414.549333 720 426.666667 768 426.666667c2.965333 0 5.76-0.170667 8.618667-0.256a32 32 0 0 0 17.088-1.045334c35.669333-3.349333 64.149333-13.184 84.586666-23.402666 25.152-12.586667 40.32-27.328 40.32-27.328a32 32 0 1 0-45.226666-45.269334s-6.165333 6.592-23.68 15.36c-11.626667 5.802667-27.776 11.562667-47.957334 14.933334L699.050667 146.133333a32 32 0 0 0-48.213334-11.562666l-55.082666 41.941333-55.466667-96.448a32 32 0 0 0-29.376-16z m2.112 97.066666l45.333334 78.848a32 32 0 0 0 47.125333 9.493334l52.864-40.234667 72 149.696c-18.304-3.477333-33.216-8.768-44.074667-14.208-17.514667-8.746667-23.68-15.338667-23.68-15.338667a32 32 0 0 0-45.226666 0s-6.165333 6.592-23.68 15.36c-17.514667 8.746667-44.373333 17.941333-81.706667 17.941334s-64.192-9.194667-81.706667-17.962667c-17.514667-8.746667-23.68-15.338667-23.68-15.338667a32 32 0 0 0-45.226666 0s-6.165333 6.592-23.68 15.36c-11.946667 5.973333-28.629333 11.904-49.621334 15.232l55.701334-122.965333 51.370666 52.138667a32 32 0 0 0 50.794667-6.954667l67.093333-121.045333zM165.824 474.666667l-5.546667 12.245333a118.4 118.4 0 0 0 10.837334 118.208l241.770666 341.333333a32 32 0 0 0 24.981334 13.504 32 32 0 0 0 25.813333-11.669333l79.061333-96.256 38.677334 52.352c12.074667 16.341333 39.424 16.341333 51.498666 0l221.44-299.754667a118.314667 118.314667 0 0 0 8.277334-118.293333l-5.418667-11.328c-17.578667 6.613333-39.274667 11.797333-64.256 14.122667l12.117333 25.173333c8.618667 17.450667 7.189333 38.314667-2.944 53.333333l-194.986666 263.872-37.333334-50.56A32 32 0 0 0 544.938667 768c-10.069333-0.661333-19.285333 4.053333-25.536 11.712l-78.549334 95.530667L223.36 568.128a54.549333 54.549333 0 0 1-4.885333-54.549333l11.178666-24.576c-24.810667-2.410667-46.378667-7.68-63.786666-14.336z" /></svg>