<svg width="34" height="34" viewBox="0 0 34 34" fill="none" xmlns="http://www.w3.org/2000/svg">
<path d="M31.7733 1.93914C32.1477 2.21141 32.3009 2.57444 32.2328 3.02823L27.8764 29.1664C27.8197 29.4954 27.6382 29.7506 27.3319 29.9321C27.1731 30.0229 26.9972 30.0683 26.8044 30.0683C26.6796 30.0683 26.5434 30.0399 26.3959 29.9832L18.6872 26.835L14.5691 31.8551C14.3649 32.116 14.087 32.2464 13.7353 32.2464C13.5878 32.2464 13.463 32.2238 13.3609 32.1784C13.1454 32.099 12.9724 31.9657 12.8419 31.7785C12.7114 31.5913 12.6462 31.3843 12.6462 31.1574V25.2184L27.3489 7.1974L9.15771 22.9381L2.43599 20.1814C2.01624 20.0226 1.78934 19.7106 1.75531 19.2454C1.73262 18.7917 1.91413 18.457 2.29985 18.2414L30.6162 1.90511C30.7863 1.803 30.9679 1.75195 31.1607 1.75195C31.3876 1.75195 31.5918 1.81435 31.7733 1.93914Z" fill="white"/>
</svg>
