<?xml version="1.0" standalone="no"?><!DOCTYPE svg PUBLIC "-//W3C//DTD SVG 1.1//EN" "http://www.w3.org/Graphics/SVG/1.1/DTD/svg11.dtd"><svg class="icon" width="32px" height="32.00px" viewBox="0 0 1024 1024" version="1.1" xmlns="http://www.w3.org/2000/svg"><path fill="#DCC294" d="M750.08 154.666667L586.666667 323.2a81.066667 81.066667 0 0 0-1.92 112.213333 75.52 75.52 0 0 0 106.666666 4.053334L693.333333 437.333333l1.92-1.92L858.986667 266.666667v535.786666a117.333333 117.333333 0 0 1-115.413334 119.04H229.973333a117.333333 117.333333 0 0 1-115.626666-119.04V273.493333a117.333333 117.333333 0 0 1 115.626666-119.04h513.6c2.24 0 4.373333 0 6.506667 0.213334zM306.986667 471.786667h179.84a39.68 39.68 0 0 0 0-79.253334H306.986667a39.68 39.68 0 0 0 0 79.253334z m0 238.08h359.573333a39.68 39.68 0 0 0 0-79.36H306.986667a39.68 39.68 0 0 0 0 79.36zM844.8 113.173333a37.866667 37.866667 0 0 1 53.333333 0.853334l1.066667 1.173333a40.533333 40.533333 0 0 1 0 54.08L668.16 407.253333a37.866667 37.866667 0 0 1-53.333333-0.746666l-1.066667-1.173334a40.533333 40.533333 0 0 1 0-54.08z" /></svg>